<?xml version="1.0" standalone="no"?>
<!DOCTYPE svg PUBLIC "-//W3C//DTD SVG 20010904//EN"
 "http://www.w3.org/TR/2001/REC-SVG-20010904/DTD/svg10.dtd">
<svg version="1.0" xmlns="http://www.w3.org/2000/svg"
 width="225.000000pt" height="225.000000pt" viewBox="0 0 225.000000 225.000000"
 preserveAspectRatio="xMidYMid meet">
<metadata>
Created by potrace 1.10, written by Peter Selinger 2001-2011
</metadata>
<g transform="translate(0.000000,225.000000) scale(0.100000,-0.100000)"
fill="#000000" stroke="none">
<path d="M813 2054 c-28 -7 -83 -57 -83 -77 0 -25 46 -46 117 -53 78 -7 93
-16 75 -44 -117 -188 -187 -384 -251 -700 l-9 -45 -1 50 c-1 61 17 181 44 286
24 91 63 188 120 295 44 83 52 104 42 117 -16 22 -52 33 -112 36 -27 1 -77 7
-109 12 -96 17 -180 14 -216 -7 -48 -29 -66 -68 -91 -194 -21 -102 -24 -144
-24 -375 0 -271 3 -302 51 -475 73 -265 207 -496 402 -687 77 -76 183 -153
210 -153 19 0 18 1 -68 66 -248 187 -451 498 -528 809 -40 160 -47 226 -46
440 0 172 4 233 23 340 30 172 51 210 123 222 30 4 366 -33 377 -42 1 -2 -8
-19 -22 -37 -68 -90 -138 -267 -179 -448 -20 -93 -23 -131 -23 -325 0 -246 8
-305 71 -503 60 -187 181 -400 282 -493 l36 -34 -27 35 c-275 357 -365 781
-266 1258 37 184 128 409 219 542 23 34 40 63 38 65 -2 2 -58 9 -126 16 -74 8
-121 17 -119 24 11 32 121 74 159 60 7 -2 82 -13 167 -24 84 -11 155 -21 157
-24 2 -2 -26 -48 -62 -103 -115 -174 -226 -424 -283 -634 -83 -304 -82 -640 0
-894 33 -101 99 -239 135 -282 l24 -29 -26 60 c-14 33 -44 100 -66 150 -119
267 -138 616 -53 947 61 233 170 486 287 662 67 100 72 115 53 136 -16 18 -42
24 -145 35 -30 4 -66 9 -80 11 -44 8 -174 13 -197 8z"/>
<path d="M1355 1543 c-96 -6 -201 -26 -217 -40 -17 -15 -18 -57 -18 -604 0
-578 0 -588 20 -602 31 -21 143 -11 205 18 69 33 85 65 92 178 3 51 11 95 17
99 6 4 40 8 76 8 149 1 270 49 364 144 84 85 117 162 124 288 5 109 -5 163
-48 253 -74 154 -228 238 -464 253 -61 4 -129 6 -151 5z m193 -33 c164 -21
296 -84 362 -173 65 -89 102 -242 82 -347 -30 -166 -135 -283 -302 -341 -50
-17 -89 -22 -172 -23 l-108 -1 0 -105 c0 -64 -5 -115 -13 -130 -21 -42 -88
-71 -175 -77 l-77 -6 2 594 3 594 102 11 c139 15 198 16 296 4z"/>
<path d="M1410 1059 l0 -221 108 3 c90 4 113 8 144 27 101 63 120 258 35 351
-41 44 -94 61 -194 61 l-93 0 0 -221z m260 145 c53 -57 70 -133 47 -207 -20
-65 -66 -114 -115 -124 -50 -10 -148 -10 -159 0 -9 9 -14 329 -6 360 4 17 14
19 100 15 l94 -3 39 -41z"/>
</g>
</svg>
